<?xml version="1.0" encoding="iso-8859-1"?>
<!-- Generator: Adobe Illustrator 19.0.0, SVG Export Plug-In . SVG Version: 6.00 Build 0)  -->
<svg version="1.1" id="Capa_1" xmlns="http://www.w3.org/2000/svg" xmlns:xlink="http://www.w3.org/1999/xlink" x="0px" y="0px"
	 viewBox="0 0 512 512" style="enable-background:new 0 0 512 512;" xml:space="preserve">
<g>
	<g>
		<path d="M315.761,112.043v-0.171V93.867c0-14.139-11.461-25.6-25.6-25.6h-29.867v-25.6c0-14.138,11.462-25.6,25.6-25.6
			c14.138,0,25.6,11.462,25.6,25.6c0,23.564,19.103,42.667,42.667,42.667s42.667-19.102,42.667-42.667
			c0-4.713-3.82-8.533-8.533-8.533s-8.533,3.82-8.533,8.533c0,14.138-11.461,25.6-25.6,25.6s-25.6-11.461-25.6-25.6
			C328.561,19.103,309.458,0,285.894,0s-42.667,19.103-42.667,42.667v25.6h-21.333c-14.138,0-25.6,11.461-25.6,25.6v18.176
			C88.504,146.318,28.909,261.484,63.184,369.274C89.954,453.462,167.691,510.996,256.027,512
			c113.101-1.285,203.745-94.013,202.46-207.114C457.483,216.55,399.949,138.813,315.761,112.043z M149.361,412.245
			c3.254,3.409,3.129,8.81-0.279,12.065c-1.517,1.448-3.513,2.287-5.609,2.357c-2.395,0.016-4.686-0.975-6.315-2.731
			c-60.524-66.057-60.524-167.415,0-233.472c2.557-3.959,7.839-5.095,11.798-2.538c3.959,2.557,5.095,7.839,2.538,11.798
			c-0.567,0.877-1.29,1.643-2.133,2.26C94.867,261.479,94.867,352.751,149.361,412.245z"/>
	</g>
</g>
<g>
</g>
<g>
</g>
<g>
</g>
<g>
</g>
<g>
</g>
<g>
</g>
<g>
</g>
<g>
</g>
<g>
</g>
<g>
</g>
<g>
</g>
<g>
</g>
<g>
</g>
<g>
</g>
<g>
</g>
</svg>
